# xmcd
#
# Track frame offsets:
#	150
#	28580
#	57261
#	87478
#	119116
#	150806
#	181772
#	200109
#	231986
#	260264
#	289717
#	314474
#	340218
#
# Disc length: 4906 seconds
#
# Revision: 1
# Processed by: cddbd v1.5.1PL0 Copyright (c) Steve Scherf et al.
# Submitted via: audiograbber 1.82.01
#
DISCID=b813280d
DTITLE=St.eVe House - Vol.1 by waliX
DYEAR=1900
DGENRE=House
TTITLE0=St.eVe - Carwash (Vinyl Release Club Mi
TTITLE1=St.eVe - Cueless
TTITLE2=St.eVe - Spears sucks!!!
TTITLE3=St.eVe - Let U know
TTITLE4=St.eVe - 3 of Mad (MrStarfunk Remix)
TTITLE5=St.eVe - Rockset (Remix)
TTITLE6=St.eVe - Wanna dance (2nd RMX)
TTITLE7=St.eVe - Coming out 2004 (2-4 Grooves N
TTITLE8=St.eVe - Love (Remix)
TTITLE9=St.eVe - Closer 2 U (Club Mix)
TTITLE10=St.eVe - Run and Hide (2nd Club Mix)
TTITLE11=St.eVe - Remember feat. Julia Summer (B
TTITLE12=St.eVe - Again (feat. Strictly Kingz)
EXTD=
EXTT0=
EXTT1=
EXTT2=
EXTT3=
EXTT4=
EXTT5=
EXTT6=
EXTT7=
EXTT8=
EXTT9=
EXTT10=
EXTT11=
EXTT12=
PLAYORDER=
